<svg width="192" height="130" fill="none" xmlns="http://www.w3.org/2000/svg"><path d="M52.2 129.8c-8.6 0-16.1-1.2-22.5-3.6-6.4-2.5-11.6-6-15.8-10.3-4.1-4.3-7.2-9.3-9.4-15C2.3 95 1.1 88.8.7 82.2l-.3-11V58.7c0-4.3.2-8.2.3-11.5.4-6.6 1.6-12.7 3.8-18.4a43.5 43.5 0 0 1 25.6-25A62.5 62.5 0 0 1 52.2.2c8.5 0 15.9 1.2 22.1 3.6a43 43 0 0 1 15.7 10c4.3 4.3 7.6 9.3 9.9 15a53.8 53.8 0 0 1 3.8 18.4c.2 3.3.3 7.2.3 11.5a220.5 220.5 0 0 1-.3 23.6 55.5 55.5 0 0 1-3.8 18.5 43.2 43.2 0 0 1-25.2 25.4 62.7 62.7 0 0 1-22.5 3.6Zm0-26.1c6.2 0 10.7-2 13.5-6 2.9-4 4.4-9.5 4.5-16.3.2-3.5.4-7.2.4-11V58.9c0-3.9-.2-7.4-.4-10.6-.1-6.6-1.6-12-4.5-16-2.8-4.1-7.3-6.2-13.5-6.4-6.2.2-10.7 2.3-13.5 6.3-2.8 4.1-4.3 9.5-4.5 16L33.8 59v11.5l.4 11c.2 6.8 1.8 12.3 4.7 16.4 2.9 4 7.3 5.9 13.3 5.9ZM163.4 128c-1.2 0-2.3-.4-3.3-1.3-.8-.8-1.2-1.9-1.2-3.2V37.8l-24.7 19a4 4 0 0 1-3.4.8 5 5 0 0 1-2.9-2l-10.6-13.8c-.7-1.1-1-2.2-.9-3.4.2-1.4 1-2.4 2.2-3.1l41.4-32a7.4 7.4 0 0 1 4.3-1.3h22.5c1.2 0 2.2.4 3 1.3 1 .8 1.5 1.9 1.5 3.2v117c0 1.3-.5 2.4-1.5 3.2-.8.9-1.8 1.3-3 1.3h-23.4Z" fill="#fff"/></svg>