<svg width="31" height="22" fill="none" xmlns="http://www.w3.org/2000/svg"><g clip-path="url(#a)"><path d="m30.3 7.4-3.5.2-3.2-5-.6-.2c-.2 0-.5 0-.6.3l-3.2 4.9h-3.5c-.4 0-.7.3-.7.7v.2l1.9 6.8c.2.7.7 1 1.4 1h9.4c.7 0 1.2-.3 1.4-1l1.9-7v-.1c0-.4-.3-.8-.7-.8ZM23 4.3l2.2 3.2h-4.3L23 4.3Z" fill="#000"/></g><circle cx="10.5" cy="11.4" r="10.5" fill="#fff"/><path d="m7.4 15.9-.2-.1-.1-.2v-.8l.3-.3 3-3 1.1-1 .6-.8.2-.8c0-.6-.2-1-.5-1.3-.3-.3-.7-.5-1.3-.5-.4 0-.7.1-1 .3L9 8l-.3.9c0 .1 0 .2-.2.3H7.3V9A3.1 3.1 0 0 1 9 6.2c.4-.2.9-.3 1.4-.3.7 0 1.3.2 1.8.4.5.3.8.7 1 1a3.1 3.1 0 0 1 .2 2.7 4 4 0 0 1-.6 1 8 8 0 0 1-1 1l-2.7 2.7H13.8l.1.3v.8H7.3Z" fill="#000"/><defs><clipPath id="a"><path fill="#fff" transform="translate(15 2.4)" d="M0 0h16v14H0z"/></clipPath></defs></svg>